
<svg width="25" height="24" viewBox="0 0 25 24" fill="none" xmlns="http://www.w3.org/2000/svg">
<path fill-rule="evenodd" clip-rule="evenodd" d="M15.939 12.4981C15.939 10.7613 14.5305 9.35284 12.7937 9.35284C11.0569 9.35284 9.64844 10.7613 9.64844 12.4981C9.64844 14.2349 11.0569 15.6434 12.7937 15.6434C14.5305 15.6434 15.939 14.2349 15.939 12.4981Z" stroke="#373737" stroke-opacity="0.8" stroke-width="0.75" stroke-linecap="round" stroke-linejoin="round"/>
<path fill-rule="evenodd" clip-rule="evenodd" d="M12.7922 20.2001C20.8375 20.2001 21.7954 17.7896 21.7954 12.5664C21.7954 8.90536 21.3112 6.94642 18.2617 6.10431C17.9817 6.01589 17.6712 5.84747 17.4196 5.57063C17.0133 5.12536 16.7164 3.758 15.7354 3.34431C14.7543 2.93168 10.8143 2.95063 9.84906 3.34431C8.88485 3.73905 8.57117 5.12536 8.16485 5.57063C7.91327 5.84747 7.6038 6.01589 7.32275 6.10431C4.27327 6.94642 3.78906 8.90536 3.78906 12.5664C3.78906 17.7896 4.74696 20.2001 12.7922 20.2001Z" stroke="#373737" stroke-opacity="0.8" stroke-width="0.75" stroke-linecap="round" stroke-linejoin="round"/>
<path d="M17.7064 8.99997H17.7154" stroke="#373737" stroke-opacity="0.8" stroke-width="0.75" stroke-linecap="round" stroke-linejoin="round"/>
</svg>
