<svg width="54" height="54" viewBox="0 0 54 54" fill="none" xmlns="http://www.w3.org/2000/svg">
<g filter="url(#filter0_d_20_794)">
<rect x="7" y="4" width="40" height="40" rx="11.4286" fill="white"/>
</g>
<path d="M35.4 24.2054C35.4 23.6267 35.344 23.0294 35.2506 22.4694H27.168V25.7734H31.7973C31.6106 26.8374 30.9946 27.7707 30.08 28.368L32.8426 30.5147C34.4666 29.0027 35.4 26.8 35.4 24.2054Z" fill="#4280EF"/>
<path d="M27.168 32.5679C29.4826 32.5679 31.424 31.8026 32.8426 30.4959L30.08 28.3679C29.3146 28.8906 28.3253 29.1893 27.168 29.1893C24.928 29.1893 23.0426 27.6773 22.352 25.6613L19.5146 27.8453C20.9706 30.7386 23.92 32.5679 27.168 32.5679Z" fill="#34A353"/>
<path d="M22.3519 25.6427C21.9973 24.5787 21.9973 23.4213 22.3519 22.3573L19.5146 20.1547C18.3013 22.5813 18.3013 25.4373 19.5146 27.8453L22.3519 25.6427Z" fill="#F6B704"/>
<path d="M27.168 18.8293C28.3813 18.8106 29.576 19.2773 30.4533 20.1173L32.8986 17.6533C31.3493 16.1973 29.296 15.4133 27.168 15.432C23.92 15.432 20.9706 17.2613 19.5146 20.1546L22.352 22.3573C23.0426 20.3226 24.928 18.8293 27.168 18.8293Z" fill="#E54335"/>
<defs>
<filter id="filter0_d_20_794" x="0.571428" y="0.428571" width="52.8571" height="52.8571" filterUnits="userSpaceOnUse" color-interpolation-filters="sRGB">
<feFlood flood-opacity="0" result="BackgroundImageFix"/>
<feColorMatrix in="SourceAlpha" type="matrix" values="0 0 0 0 0 0 0 0 0 0 0 0 0 0 0 0 0 0 127 0" result="hardAlpha"/>
<feOffset dy="2.85714"/>
<feGaussianBlur stdDeviation="3.21429"/>
<feComposite in2="hardAlpha" operator="out"/>
<feColorMatrix type="matrix" values="0 0 0 0 0 0 0 0 0 0 0 0 0 0 0 0 0 0 0.25 0"/>
<feBlend mode="normal" in2="BackgroundImageFix" result="effect1_dropShadow_20_794"/>
<feBlend mode="normal" in="SourceGraphic" in2="effect1_dropShadow_20_794" result="shape"/>
</filter>
</defs>
</svg>
