<svg width="20" height="21" viewBox="0 0 20 21" fill="none" xmlns="http://www.w3.org/2000/svg">
<path fill-rule="evenodd" clip-rule="evenodd" d="M12.424 14.5708H7.5782C7.2332 14.5708 6.9532 14.2908 6.9532 13.9458C6.9532 13.6008 7.2332 13.3208 7.5782 13.3208H12.424C12.769 13.3208 13.049 13.6008 13.049 13.9458C13.049 14.2908 12.769 14.5708 12.424 14.5708ZM16.0415 5.63167C15.739 5.365 15.3949 5.06333 14.9849 4.68417C14.799 4.53417 14.5957 4.3625 14.3799 4.18083C13.1632 3.155 11.4965 1.75 9.97737 1.75C8.4757 1.75 6.91654 3.07667 5.66404 4.1425C5.43237 4.33917 5.2157 4.52417 4.99487 4.70333C4.60654 5.06333 4.26237 5.36583 3.95904 5.63333C1.96987 7.38417 1.5957 7.84333 1.5957 11.9275C1.5957 19.25 3.7132 19.25 10.0007 19.25C16.2874 19.25 18.4057 19.25 18.4057 11.9275C18.4057 7.8425 18.0315 7.38333 16.0415 5.63167Z" fill="#FEFEFE"/>
</svg>
