<svg width="17" height="16" viewBox="0 0 17 16" fill="none" xmlns="http://www.w3.org/2000/svg">
<path fill-rule="evenodd" clip-rule="evenodd" d="M10.0908 10.5548C10.0908 10.8998 9.81083 11.1798 9.46583 11.1798C9.12083 11.1798 8.84083 10.8998 8.84083 10.5548V6.14731C8.84083 5.80231 9.12083 5.52231 9.46583 5.52231C9.81083 5.52231 10.0908 5.80231 10.0908 6.14731V10.5548ZM16.25 9.72648C15.3758 9.72648 14.985 9.07815 14.985 8.43398C14.985 7.79148 15.3758 7.14231 16.25 7.14231C16.48 7.14231 16.6667 6.95648 16.6667 6.72565C16.6667 2.67981 16.3292 1.18148 10.0908 0.966481V3.64731C10.0908 3.99231 9.81083 4.27231 9.46583 4.27231C9.12083 4.27231 8.84083 3.99231 8.84083 3.64731V0.940648C8.66917 0.939814 8.51333 0.934814 8.33333 0.934814C0.379167 0.934814 0 2.32648 0 6.72565C0 6.95648 0.186667 7.14231 0.416667 7.14231C1.29083 7.14231 1.68167 7.79148 1.68167 8.43398C1.68167 8.77565 1.56667 9.10481 1.36417 9.33481C1.13667 9.59481 0.818333 9.72648 0.416667 9.72648C0.186667 9.72648 0 9.91231 0 10.1431C0 14.5431 0.379167 15.9348 8.33333 15.9348C8.51333 15.9348 8.66917 15.9306 8.84083 15.929V13.0548C8.84083 12.7098 9.12083 12.4298 9.46583 12.4298C9.81083 12.4298 10.0908 12.7098 10.0908 13.0548V15.9031C16.3292 15.6881 16.6667 14.1898 16.6667 10.1431C16.6667 9.91231 16.48 9.72648 16.25 9.72648Z" fill="#F6F6F6"/>
</svg>
