<svg width="14" height="18" viewBox="0 0 14 18" fill="none" xmlns="http://www.w3.org/2000/svg">
<path fill-rule="evenodd" clip-rule="evenodd" d="M6.87054 17.0516C3.79402 17.0516 1.16675 16.5729 1.16675 14.6555C1.16675 12.7382 3.77735 10.9683 6.87054 10.9683C9.94705 10.9683 12.5743 12.7211 12.5743 14.6384C12.5743 16.5549 9.96372 17.0516 6.87054 17.0516Z" stroke="#373737" stroke-linecap="round" stroke-linejoin="round"/>
<path fill-rule="evenodd" clip-rule="evenodd" d="M6.86458 8.31136C8.88352 8.31136 10.5199 6.675 10.5199 4.65606C10.5199 2.63712 8.88352 1 6.86458 1C4.84564 1 3.20852 2.63712 3.20852 4.65606C3.2017 6.66818 4.8267 8.30455 6.83882 8.31136C6.84791 8.31136 6.85624 8.31136 6.86458 8.31136Z" stroke="#373737" stroke-linecap="round" stroke-linejoin="round"/>
</svg>
