<svg width="16" height="17" viewBox="0 0 16 17" fill="none" xmlns="http://www.w3.org/2000/svg">
<path fill-rule="evenodd" clip-rule="evenodd" d="M15.5012 3.99625C15.5012 5.68675 14.1302 7.05775 12.4397 7.05775C10.7492 7.05775 9.37891 5.68675 9.37891 3.99625C9.37891 2.30575 10.7492 0.934753 12.4397 0.934753C14.1302 0.934753 15.5012 2.30575 15.5012 3.99625Z" stroke="#F7F9FC" stroke-opacity="0.5" stroke-linecap="round" stroke-linejoin="round"/>
<path fill-rule="evenodd" clip-rule="evenodd" d="M6.62225 3.99625C6.62225 5.68675 5.252 7.05775 3.56075 7.05775C1.871 7.05775 0.5 5.68675 0.5 3.99625C0.5 2.30575 1.871 0.934753 3.56075 0.934753C5.252 0.934753 6.62225 2.30575 6.62225 3.99625Z" stroke="#F7F9FC" stroke-opacity="0.5" stroke-linecap="round" stroke-linejoin="round"/>
<path fill-rule="evenodd" clip-rule="evenodd" d="M15.5012 12.8197C15.5012 14.5102 14.1302 15.8804 12.4397 15.8804C10.7492 15.8804 9.37891 14.5102 9.37891 12.8197C9.37891 11.1292 10.7492 9.75818 12.4397 9.75818C14.1302 9.75818 15.5012 11.1292 15.5012 12.8197Z" stroke="#F7F9FC" stroke-opacity="0.5" stroke-linecap="round" stroke-linejoin="round"/>
<path fill-rule="evenodd" clip-rule="evenodd" d="M6.62225 12.8197C6.62225 14.5102 5.252 15.8804 3.56075 15.8804C1.871 15.8804 0.5 14.5102 0.5 12.8197C0.5 11.1292 1.871 9.75818 3.56075 9.75818C5.252 9.75818 6.62225 11.1292 6.62225 12.8197Z" stroke="#F7F9FC" stroke-opacity="0.5" stroke-linecap="round" stroke-linejoin="round"/>
</svg>
