<svg width="20" height="21" viewBox="0 0 20 21" fill="none" xmlns="http://www.w3.org/2000/svg">
<path d="M18.7399 5.07666C18.7399 7.08799 17.1094 8.7185 15.0981 8.7185C13.0867 8.7185 11.4562 7.08799 11.4562 5.07666C11.4562 3.06532 13.0867 1.43481 15.0981 1.43481C17.1094 1.43481 18.7399 3.06532 18.7399 5.07666Z" fill="#F6F6F6"/>
<path d="M8.03369 5.07666C8.03369 7.08799 6.40318 8.7185 4.39184 8.7185C2.38051 8.7185 0.75 7.08799 0.75 5.07666C0.75 3.06532 2.38051 1.43481 4.39184 1.43481C6.40318 1.43481 8.03369 3.06532 8.03369 5.07666Z" fill="#F6F6F6"/>
<path d="M18.7399 15.7829C18.7399 17.7942 17.1094 19.4247 15.0981 19.4247C13.0867 19.4247 11.4562 17.7942 11.4562 15.7829C11.4562 13.7716 13.0867 12.1411 15.0981 12.1411C17.1094 12.1411 18.7399 13.7716 18.7399 15.7829Z" fill="#F6F6F6"/>
<path d="M8.03369 15.7829C8.03369 17.7942 6.40318 19.4247 4.39184 19.4247C2.38051 19.4247 0.75 17.7942 0.75 15.7829C0.75 13.7716 2.38051 12.1411 4.39184 12.1411C6.40318 12.1411 8.03369 13.7716 8.03369 15.7829Z" fill="#F6F6F6"/>
</svg>
