<svg width="18" height="18" viewBox="0 0 18 18" fill="none" xmlns="http://www.w3.org/2000/svg">
<path d="M17.4 9.20536C17.4 8.62669 17.344 8.02936 17.2506 7.46936H9.16797V10.7734H13.7973C13.6106 11.8374 12.9946 12.7707 12.08 13.368L14.8426 15.5147C16.4666 14.0027 17.4 11.8 17.4 9.20536Z" fill="#4280EF"/>
<path d="M9.16798 17.5679C11.4826 17.5679 13.424 16.8026 14.8426 15.4959L12.08 13.3679C11.3146 13.8906 10.3253 14.1893 9.16798 14.1893C6.92798 14.1893 5.04265 12.6773 4.35198 10.6613L1.51465 12.8453C2.97065 15.7386 5.91998 17.5679 9.16798 17.5679Z" fill="#34A353"/>
<path d="M4.35195 10.6427C3.99728 9.57866 3.99728 8.42133 4.35195 7.35733L1.51461 5.15466C0.301281 7.58133 0.301281 10.4373 1.51461 12.8453L4.35195 10.6427Z" fill="#F6B704"/>
<path d="M9.16798 3.8293C10.3813 3.81063 11.576 4.2773 12.4533 5.1173L14.8986 2.6533C13.3493 1.1973 11.296 0.4133 9.16798 0.431966C5.91998 0.431966 2.97065 2.2613 1.51465 5.15463L4.35198 7.3573C5.04265 5.32263 6.92798 3.8293 9.16798 3.8293Z" fill="#E54335"/>
</svg>
