<svg width="80" height="80" viewBox="0 0 80 80" fill="none" xmlns="http://www.w3.org/2000/svg">
<path d="M17.5999 6.39999C11.3624 6.39999 6.3999 11.3625 6.3999 17.6V62.4C6.3999 68.6375 11.3624 73.6 17.5999 73.6H62.3999C68.6374 73.6 73.5999 68.6375 73.5999 62.4V24L70.3999 27.7V62.4C70.3999 66.8812 66.8811 70.4 62.3999 70.4H17.5999C13.1187 70.4 9.5999 66.8812 9.5999 62.4V17.6C9.5999 13.1187 13.1187 9.59999 17.5999 9.59999H59.8499L62.3999 6.39999H17.5999ZM69.1999 12.4L38.2499 48.9L25.2499 36.75L23.0499 39.1L37.2999 52.35L38.5499 53.5L39.5999 52.25L71.5999 14.45L69.1999 12.4Z" fill="#004186"/>
</svg>
