<svg width="14" height="14" viewBox="0 0 14 14" fill="none" xmlns="http://www.w3.org/2000/svg">
<path fill-rule="evenodd" clip-rule="evenodd" d="M13.2923 8.32929C11.5183 8.32929 11.5183 5.58635 13.2923 5.58635C13.2923 2.40824 13.2923 1.27393 7.02896 1.27393C0.765625 1.27393 0.765625 2.40824 0.765625 5.58635C2.53963 5.58635 2.53963 8.32929 0.765625 8.32929C0.765625 11.508 0.765625 12.6423 7.02896 12.6423C13.2923 12.6423 13.2923 11.508 13.2923 8.32929Z" stroke="#004186" stroke-opacity="0.6" stroke-linecap="round" stroke-linejoin="round"/>
<path fill-rule="evenodd" clip-rule="evenodd" d="M7.0278 5.11401C6.57247 5.11401 6.52913 5.84033 6.25846 6.09738C5.98713 6.3538 5.14513 6.06075 5.0278 6.51612C4.91113 6.97212 5.66913 7.12686 5.76313 7.5178C5.85646 7.90875 5.3938 8.45822 5.78913 8.73233C6.18513 9.00517 6.61113 8.38686 7.0278 8.38686C7.44447 8.38686 7.87047 9.00517 8.26647 8.73233C8.66247 8.45822 8.19913 7.90875 8.29247 7.5178C8.38647 7.12686 9.14447 6.97212 9.0278 6.51612C8.91047 6.06075 8.06847 6.3538 7.79713 6.09738C7.52647 5.84033 7.48313 5.11401 7.0278 5.11401Z" stroke="#004186" stroke-opacity="0.6" stroke-linecap="round" stroke-linejoin="round"/>
</svg>
