<svg width="21" height="21" viewBox="0 0 21 21" fill="none" xmlns="http://www.w3.org/2000/svg">
<path fill-rule="evenodd" clip-rule="evenodd" d="M16.0633 10.6918C15.1133 10.6918 14.2216 10.8834 13.4716 11.2084C16.0966 11.9668 17.955 13.7834 18.005 15.9084C19.3716 15.7334 20.8466 15.2168 20.8466 13.8084C20.8466 12.1168 18.655 10.6918 16.0633 10.6918Z" fill="#F6F6F6"/>
<path fill-rule="evenodd" clip-rule="evenodd" d="M16.0383 9.4918H16.0549C17.8299 9.4918 19.2799 8.0418 19.2799 6.27513C19.2799 4.50013 17.8299 3.05013 16.0549 3.05013C15.7049 3.05013 15.3716 3.10846 15.0549 3.20846C15.6299 4.05846 15.9633 5.08346 15.9633 6.1918C15.9716 7.3168 15.6216 8.40013 14.9633 9.30013C15.3049 9.42513 15.6633 9.4918 16.0383 9.4918Z" fill="#F6F6F6"/>
<path fill-rule="evenodd" clip-rule="evenodd" d="M7.85495 11.2001C7.10495 10.8834 6.21328 10.6918 5.27161 10.6918C2.67995 10.6918 0.488281 12.1168 0.488281 13.8084C0.488281 15.2168 1.95495 15.7251 3.32161 15.9084C3.36328 13.7834 5.22161 11.9668 7.85495 11.2001Z" fill="#F6F6F6"/>
<path fill-rule="evenodd" clip-rule="evenodd" d="M5.27162 9.4918H5.29662C5.67162 9.4918 6.02995 9.42513 6.37162 9.30013C5.73829 8.43346 5.36329 7.35846 5.36329 6.1918C5.36329 5.08346 5.69662 4.05846 6.27162 3.20846C5.95495 3.10846 5.62162 3.05013 5.27162 3.05013C3.49662 3.05013 2.05495 4.50013 2.05495 6.27513C2.05495 8.0418 3.49662 9.4918 5.27162 9.4918Z" fill="#F6F6F6"/>
<path fill-rule="evenodd" clip-rule="evenodd" d="M10.663 12.056C7.36212 12.056 4.57296 13.8526 4.57296 15.9793C4.57296 18.7293 9.15629 18.7293 10.663 18.7293C13.278 18.7293 16.7546 18.446 16.7546 15.9968C16.7546 13.8601 13.9646 12.056 10.663 12.056Z" fill="#F6F6F6"/>
<path fill-rule="evenodd" clip-rule="evenodd" d="M10.6638 10.2469H10.6913C11.7704 10.2435 12.7838 9.81936 13.5438 9.05353C14.3046 8.2877 14.7213 7.27186 14.7171 6.19436C14.7171 3.95853 12.8996 2.1402 10.6638 2.1402C8.42878 2.1402 6.61128 3.95853 6.61128 6.19436C6.61128 8.42853 8.42878 10.2469 10.6638 10.2469Z" fill="#F6F6F6"/>
</svg>
