<svg width="19" height="15" viewBox="0 0 19 15" fill="none" xmlns="http://www.w3.org/2000/svg">
<path fill-rule="evenodd" clip-rule="evenodd" d="M9.64367 14.4083C6.94451 14.4083 4.63867 14 4.63867 12.365C4.63867 10.73 6.92951 9.30664 9.64367 9.30664C12.3428 9.30664 14.6487 10.7166 14.6487 12.3508C14.6487 13.985 12.3578 14.4083 9.64367 14.4083Z" stroke="#F7F9FC" stroke-opacity="0.5" stroke-linecap="round" stroke-linejoin="round"/>
<path fill-rule="evenodd" clip-rule="evenodd" d="M9.64389 6.9754C11.4156 6.9754 12.8522 5.53957 12.8522 3.7679C12.8522 1.99624 11.4156 0.55957 9.64389 0.55957C7.87223 0.55957 6.43556 1.99624 6.43556 3.7679C6.43056 5.5329 7.85556 6.96957 9.62139 6.9754H9.64389Z" stroke="#F7F9FC" stroke-opacity="0.5" stroke-linecap="round" stroke-linejoin="round"/>
<path d="M14.9684 6.09459C15.9992 5.81876 16.7592 4.87876 16.7592 3.75959C16.7592 2.59209 15.9317 1.61709 14.8301 1.39209" stroke="#F7F9FC" stroke-opacity="0.5" stroke-linecap="round" stroke-linejoin="round"/>
<path d="M15.4531 8.72192C16.9148 8.72192 18.1631 9.71276 18.1631 10.5978C18.1631 11.1186 17.7323 11.6861 17.079 11.8394" stroke="#F7F9FC" stroke-opacity="0.5" stroke-linecap="round" stroke-linejoin="round"/>
<path d="M4.32096 6.09459C3.2893 5.81876 2.5293 4.87876 2.5293 3.75959C2.5293 2.59209 3.35763 1.61709 4.45846 1.39209" stroke="#F7F9FC" stroke-opacity="0.5" stroke-linecap="round" stroke-linejoin="round"/>
<path d="M3.835 8.72192C2.37333 8.72192 1.125 9.71276 1.125 10.5978C1.125 11.1186 1.55583 11.6861 2.21 11.8394" stroke="#F7F9FC" stroke-opacity="0.5" stroke-linecap="round" stroke-linejoin="round"/>
</svg>
